<?xml version="1.0" encoding="iso-8859-1"?>
<!-- Generator: Adobe Illustrator 19.0.0, SVG Export Plug-In . SVG Version: 6.00 Build 0)  -->
<svg version="1.1" id="Capa_1" xmlns="http://www.w3.org/2000/svg" xmlns:xlink="http://www.w3.org/1999/xlink" x="0px" y="0px"
	 viewBox="0 0 502.664 502.664" style="enable-background:new 0 0 502.664 502.664;" xml:space="preserve">
<g>
	<path style="fill:#010002;" d="M413.382,211.965h-60.226v-96.421H0V387.12h353.157v-77.18h60.161l89.346,74.225V137.654
		L413.382,211.965z M177.355,354.742c-48.772,0-89.691-33.37-101.426-78.496H52.072l35.7-35.743l35.678,35.743H99.894
		c11.066,32.227,41.481,55.415,77.439,55.415c38.267,0,70.234-26.208,79.316-61.563h23.749
		C270.843,318.309,228.327,354.742,177.355,354.742z M266.701,258.99l-35.678-35.721h23.512
		c-11.001-32.227-41.502-55.394-77.418-55.394c-38.245,0-70.234,26.187-79.251,61.585H74.139
		c9.448-48.211,51.921-84.622,102.936-84.622c48.75,0,89.648,33.327,101.426,78.431h23.857L266.701,258.99z"/>
</g>
</svg>
